<?xml version="1.0" encoding="UTF-8" standalone="no"?><!DOCTYPE svg PUBLIC "-//W3C//DTD SVG 1.1//EN" "http://www.w3.org/Graphics/SVG/1.1/DTD/svg11.dtd"><svg width="100%" height="100%" viewBox="0 0 400 400" version="1.1" xmlns="http://www.w3.org/2000/svg" xmlns:xlink="http://www.w3.org/1999/xlink" xml:space="preserve" xmlns:serif="http://www.serif.com/" style="fill-rule:evenodd;clip-rule:evenodd;stroke-linejoin:round;stroke-miterlimit:2;"><path d="M191.5,384.477c23.992,-31.874 47.04,-86.253 64.12,-136.476l-5.283,-0c-9.894,28.928 -21.747,59.124 -34.581,85.44c-7.867,16.133 -16.032,30.659 -24.256,42.499l-0,8.537Z" style="stroke:#000;stroke-width:10px;"/><path d="M251.647,15.065c43.559,11.423 50.978,51.001 29.666,142.936l-5.135,0c9.767,-41.873 13.474,-72.345 10.793,-94.073c-1.598,-12.956 -5.43,-22.441 -11.293,-29.369c-5.755,-6.802 -13.832,-11.571 -24.797,-14.524c-15.188,-0.611 -27.44,6.977 -37.838,21.17c-10.623,14.501 -18.896,35.413 -25.685,59.809l-4.326,15.544l-5.222,-15.266c-10.212,-29.852 -27.687,-47.228 -49.3,-47.228c-7.668,0 -15.263,4.675 -21.427,13.662c-6.137,8.949 -10.427,21.655 -11.382,36.101c-1.904,28.784 9.472,63.634 44.283,87.62l1.529,1.053l-8.618,0c-67.578,-50.928 -43.084,-143.436 -4.385,-143.436c22.66,0 40.223,16.647 51.078,42.784c1.047,2.522 2.032,5.133 2.953,7.826c0.76,-2.73 1.54,-5.424 2.341,-8.076c13.626,-45.098 33.485,-78.262 66.765,-76.533Z" style="stroke:#000;stroke-width:10px;"/><path d="M222.512,224.146l15.321,-0l0,-2.092c-1.805,0 -3.138,-0.307 -4,-0.923c-0.738,-0.615 -1.374,-1.62 -1.907,-3.015c-2.461,-6.399 -4.881,-12.716 -7.261,-18.951c-2.379,-6.276 -4.799,-12.614 -7.26,-19.013l-1.6,0.861c-0.533,0.247 -1.066,0.513 -1.6,0.8c-0.246,0.698 -0.697,1.949 -1.353,3.754c-0.616,1.805 -1.334,3.897 -2.154,6.276c-0.82,2.379 -1.702,4.881 -2.646,7.507c-0.943,2.625 -1.825,5.127 -2.646,7.506c-0.82,2.379 -1.558,4.471 -2.215,6.276c-0.615,1.805 -1.046,3.056 -1.292,3.754c-0.287,0.697 -0.554,1.333 -0.8,1.907c-0.246,0.574 -0.512,1.046 -0.8,1.415c-0.574,0.698 -1.21,1.169 -1.907,1.416c-0.656,0.287 -1.518,0.43 -2.584,0.43l0,2.092l13.229,-0l0,-2.092c-2.995,-0 -4.677,-0.389 -5.046,-1.169c-0.205,-0.205 -0.307,-0.554 -0.307,-1.046c-0,-0.287 0.02,-0.595 0.061,-0.923c0.082,-0.369 0.226,-0.759 0.431,-1.169c0.492,-1.518 0.984,-3.015 1.477,-4.492c0.533,-1.476 1.046,-2.953 1.538,-4.43l16.859,-0c0.451,1.313 0.923,2.626 1.415,3.938c0.493,1.313 0.964,2.646 1.416,4c0.164,0.369 0.307,0.738 0.43,1.107l0.492,0.985l0.247,0.738c0.082,0.205 0.123,0.41 0.123,0.615c-0,0.205 -0.021,0.329 -0.062,0.37c-0.205,0.492 -0.738,0.861 -1.6,1.107c-0.82,0.246 -2.153,0.369 -3.999,0.369l-0,2.092Zm-3.261,-28.242c1.353,3.487 2.687,6.973 3.999,10.46l-15.259,-0c1.23,-3.487 2.44,-6.973 3.63,-10.46l3.692,-10.46l3.938,10.46Z" style="stroke:#000;stroke-width:3px;"/><path d="M272.003,184.213c0.943,-0.656 2.072,-0.984 3.384,-0.984l0,-1.969l-12.675,0l0,1.969c2.584,0 4.143,0.266 4.676,0.799c0.328,0.329 0.472,0.677 0.431,1.046c-0.041,0.37 -0.164,0.739 -0.369,1.108l-9.537,17.229l-9.661,-18.029c-0.164,-0.328 -0.266,-0.636 -0.307,-0.923c0,-0.287 0.143,-0.533 0.43,-0.738c0.328,-0.287 0.903,-0.431 1.723,-0.431c0.862,-0.041 1.785,-0.061 2.769,-0.061l0,-1.969l-14.09,0l0,1.969c1.435,0 2.502,0.205 3.199,0.615c0.739,0.369 1.354,1.025 1.846,1.969l11.445,21.043l0,12.06c0,1.272 -0.328,2.113 -0.985,2.523c-0.451,0.205 -1.107,0.369 -1.969,0.492c-0.82,0.164 -1.866,0.246 -3.138,0.246l0,1.969l15.998,0l0,-1.969c-2.461,0 -4.143,-0.266 -5.045,-0.8c-0.616,-0.41 -0.923,-1.21 -0.923,-2.399l0,-12.737l10.583,-19.136c0.861,-1.477 1.6,-2.441 2.215,-2.892Z" style="stroke:#000;stroke-width:3px;"/><path d="M302.91,224.146l15.321,-0l-0,-2.092c-1.805,0 -3.138,-0.307 -3.999,-0.923c-0.739,-0.615 -1.375,-1.62 -1.908,-3.015c-2.461,-6.399 -4.881,-12.716 -7.26,-18.951c-2.38,-6.276 -4.8,-12.614 -7.261,-19.013l-1.6,0.861c-0.533,0.247 -1.066,0.513 -1.6,0.8c-0.246,0.698 -0.697,1.949 -1.353,3.754c-0.616,1.805 -1.333,3.897 -2.154,6.276c-0.82,2.379 -1.702,4.881 -2.646,7.507c-0.943,2.625 -1.825,5.127 -2.645,7.506c-0.821,2.379 -1.559,4.471 -2.216,6.276c-0.615,1.805 -1.046,3.056 -1.292,3.754c-0.287,0.697 -0.553,1.333 -0.8,1.907c-0.246,0.574 -0.512,1.046 -0.799,1.415c-0.575,0.698 -1.211,1.169 -1.908,1.416c-0.656,0.287 -1.518,0.43 -2.584,0.43l0,2.092l13.229,-0l0,-2.092c-2.995,-0 -4.676,-0.389 -5.046,-1.169c-0.205,-0.205 -0.307,-0.554 -0.307,-1.046c0,-0.287 0.02,-0.595 0.061,-0.923c0.082,-0.369 0.226,-0.759 0.431,-1.169c0.492,-1.518 0.984,-3.015 1.477,-4.492c0.533,-1.476 1.046,-2.953 1.538,-4.43l16.859,-0c0.451,1.313 0.923,2.626 1.415,3.938c0.493,1.313 0.964,2.646 1.416,4c0.164,0.369 0.307,0.738 0.43,1.107l0.493,0.985l0.246,0.738c0.082,0.205 0.123,0.41 0.123,0.615c0,0.205 -0.021,0.329 -0.062,0.37c-0.205,0.492 -0.738,0.861 -1.6,1.107c-0.82,0.246 -2.153,0.369 -3.999,0.369l0,2.092Zm-3.261,-28.242c1.354,3.487 2.687,6.973 3.999,10.46l-15.259,-0c1.23,-3.487 2.441,-6.973 3.63,-10.46l3.692,-10.46l3.938,10.46Z" style="stroke:#000;stroke-width:3px;"/></svg>